<?xml version="1.0" standalone="no"?>
<!DOCTYPE svg PUBLIC "-//W3C//DTD SVG 20010904//EN"
 "http://www.w3.org/TR/2001/REC-SVG-20010904/DTD/svg10.dtd">
<svg version="1.0" xmlns="http://www.w3.org/2000/svg"
 width="700.000000pt" height="700.000000pt" viewBox="0 0 700.000000 700.000000"
 preserveAspectRatio="xMidYMid meet">
<metadata>
Created by potrace 1.14, written by Peter Selinger 2001-2017
</metadata>
<g transform="translate(0.000000,700.000000) scale(0.100000,-0.100000)"
fill="#000000" stroke="none">
<path d="M3468 6895 c-2 -2 -30 -5 -63 -6 -128 -6 -303 -62 -434 -139 -209
-121 -374 -314 -461 -536 -50 -129 -58 -169 -67 -352 -8 -188 -8 -2417 0
-2619 9 -199 24 -263 114 -483 84 -208 275 -592 449 -905 148 -267 483 -825
495 -825 17 0 178 257 373 595 48 83 92 159 98 170 160 276 375 704 473 945
53 128 106 304 113 376 22 205 20 2741 -2 2895 -19 133 -94 311 -183 437 -168
236 -451 404 -741 438 -59 7 -160 12 -164 9z m188 -461 c192 -57 341 -203 401
-391 98 -307 -83 -636 -399 -728 -95 -27 -249 -24 -333 6 -183 66 -310 195
-370 373 -103 306 73 644 385 737 71 21 250 23 316 3z m-15 -1440 c162 -38
302 -154 385 -322 46 -90 47 -95 52 -206 6 -154 -21 -257 -100 -369 -42 -61
-143 -147 -213 -182 -220 -111 -476 -75 -651 93 -123 118 -181 240 -188 397
-10 228 114 442 315 545 105 54 276 73 400 44z m11 -1454 c174 -41 333 -184
398 -358 113 -302 -62 -650 -377 -748 -76 -23 -189 -27 -275 -9 -274 56 -453
264 -463 537 -9 235 115 439 329 542 107 51 261 66 388 36z"/>
<path d="M1879 1482 c-46 -3 -48 -5 -210 -174 -90 -94 -189 -196 -219 -228
-30 -31 -132 -137 -227 -236 -95 -98 -216 -225 -270 -281 -54 -55 -181 -188
-283 -294 -102 -105 -199 -207 -217 -225 -18 -18 -29 -35 -25 -37 4 -3 1390
-4 3080 -4 l3072 0 -17 21 c-10 12 -70 75 -135 141 -64 66 -146 151 -182 188
-36 38 -163 170 -283 294 -120 124 -247 255 -282 292 -35 36 -131 136 -214
221 -82 85 -184 190 -225 233 l-75 77 -605 -2 -606 -3 -78 -125 c-43 -69 -91
-145 -107 -170 -15 -25 -74 -119 -130 -209 -57 -91 -111 -175 -121 -188 l-18
-23 -35 47 c-19 27 -118 185 -222 353 -103 168 -193 311 -200 319 -11 11 -114
13 -566 15 -305 0 -575 0 -600 -2z"/>
</g>
</svg>
