<svg id="Ebene_1" data-name="Ebene 1" xmlns="http://www.w3.org/2000/svg" width="151.43mm" height="277.77mm" viewBox="0 0 429.25 787.39">
  <g>
    <path d="M344.63,449.44V130A130,130,0,0,0,214.6,0h0a130,130,0,0,0-130,130l0,319.41" style="fill: #000100"/>
    <path d="M214.6,312.56A129.39,129.39,0,0,0,85.36,441.8l-.13,1.2c-9.5,42.87,86.08,204.36,129.37,272C257.9,647.42,353.47,486,344,443l-.13-1.2A129.38,129.38,0,0,0,214.6,312.56Z" style="fill: #000100"/>
    <g>
      <path d="M233.59,684.72h-38c7,11.35,13.4,21.62,19,30.32C220.18,706.34,226.62,696.07,233.59,684.72Z" style="fill: #000100"/>
      <path d="M330.1,684.72H246.55c-14.89,24.38-25.72,41.13-27.3,43.56l-4.65,7.16L210,728.28c-1.57-2.43-12.4-19.19-27.27-43.56H99.15L0,787.39H429.25Z" style="fill: #e5184d"/>
    </g>
    <path d="M214.79,229.13a70.88,70.88,0,1,1-71,70.76A70.88,70.88,0,0,1,214.79,229.13Z" style="fill: #fdfdfd"/>
    <path d="M143.74,124.59a70.87,70.87,0,1,1,70.62,70.9A70.85,70.85,0,0,1,143.74,124.59Z" style="fill: #fdfdfd"/>
    <path d="M143.74,475.29a71,71,0,0,1,71.4-70.77c38.77.1,70.41,32.1,70.33,71.14a70.87,70.87,0,0,1-141.73-.37Z" style="fill: #2aa745"/>
  </g>
</svg>
