<?xml version="1.0" encoding="utf-8"?>
<!-- Generator: Adobe Illustrator 25.4.1, SVG Export Plug-In . SVG Version: 6.00 Build 0)  -->
<svg version="1.1" id="Ebene_1" xmlns="http://www.w3.org/2000/svg" xmlns:xlink="http://www.w3.org/1999/xlink" x="0px" y="0px"
	 viewBox="0 0 77.5 87.7" style="enable-background:new 0 0 77.5 87.7;" xml:space="preserve">
<style type="text/css">
	.st0{fill:#E51D4E;}
	.st1{fill:#020303;}
	.st2{fill:#FEFEFE;}
	.st3{fill:#29A846;}
</style>
<g>
	<g>
		<path class="st0" d="M42.2,69.2h-6.8c1.3,2,2.4,3.9,3.4,5.5C39.7,73.1,40.9,71.2,42.2,69.2z"/>
		<path class="st0" d="M59.6,69.2H44.5c-2.7,4.4-4.6,7.4-4.9,7.9l-0.8,1.3L37.9,77c-0.3-0.4-2.2-3.5-4.9-7.9H17.9L0,87.7h77.5
			L59.6,69.2z"/>
	</g>
	<path class="st1" d="M52.2,47.6V14.7c0-7.4-6-13.4-13.4-13.4h0c-7.4,0-13.4,6-13.4,13.4l0,32.9"/>
	<path class="st1" d="M38.8,33.5c-7.3,0-13.3,6-13.3,13.3l0,0.1c-1,4.4,8.9,21.1,13.3,28.1c4.5-7,14.3-23.6,13.3-28.1l0-0.1
		C52.1,39.5,46.1,33.5,38.8,33.5z"/>
	<path class="st2" d="M38.8,24.9c4,0,7.3,3.3,7.3,7.3c0,4-3.3,7.3-7.3,7.3c-4,0-7.3-3.3-7.3-7.3C31.5,28.2,34.7,24.9,38.8,24.9z"/>
	<path class="st2" d="M31.5,14.1c0-4,3.3-7.3,7.3-7.3c4,0,7.3,3.3,7.3,7.3c0,4-3.3,7.3-7.3,7.3C34.7,21.4,31.5,18.1,31.5,14.1z"/>
	<path class="st3" d="M31.5,50.3c0-4,3.3-7.3,7.4-7.3c4,0,7.3,3.3,7.3,7.3c0,4-3.3,7.3-7.3,7.3C34.7,57.6,31.5,54.3,31.5,50.3z"/>
</g>
</svg>
