<?xml version="1.0" standalone="no"?>
<!DOCTYPE svg PUBLIC "-//W3C//DTD SVG 20010904//EN"
 "http://www.w3.org/TR/2001/REC-SVG-20010904/DTD/svg10.dtd">
<svg version="1.0" xmlns="http://www.w3.org/2000/svg"
 width="704.000000pt" height="704.000000pt" viewBox="0 0 704.000000 704.000000"
 preserveAspectRatio="xMidYMid meet">
<metadata>
Created by potrace 1.14, written by Peter Selinger 2001-2017
</metadata>
<g transform="translate(0.000000,704.000000) scale(0.100000,-0.100000)"
fill="#000000" stroke="none">
<path d="M3415 6929 c-404 -38 -763 -318 -901 -704 -67 -187 -64 -121 -64
-1657 0 -1526 -3 -1438 61 -1633 95 -287 348 -795 669 -1346 98 -167 326 -545
337 -558 7 -9 34 29 138 197 527 858 872 1559 930 1888 22 128 22 2759 0 2907
-85 565 -595 960 -1170 906z m283 -464 c256 -81 431 -337 409 -600 -12 -133
-64 -252 -156 -357 -48 -55 -158 -125 -241 -155 -102 -35 -252 -38 -355 -6
-248 78 -414 304 -415 563 0 262 180 494 439 566 25 7 90 13 143 13 77 1 113
-4 176 -24z m-39 -1440 c194 -46 358 -202 427 -405 26 -77 26 -253 0 -330 -32
-96 -79 -173 -146 -241 -110 -111 -232 -167 -385 -176 -170 -10 -315 47 -441
172 -285 281 -209 753 149 937 105 53 274 71 396 43z m58 -1475 c121 -42 230
-129 303 -241 204 -316 42 -747 -325 -861 -104 -33 -243 -30 -348 6 -185 63
-311 188 -371 368 -36 106 -36 244 -2 353 64 200 230 350 441 395 68 15 233 4
302 -20z"/>
<path d="M1132 747 l-714 -742 1551 -3 c853 -1 2249 -1 3102 0 l1550 3 -713
738 -713 737 -606 0 -607 0 -217 -349 c-119 -192 -222 -357 -230 -367 -12 -17
-20 -8 -87 96 -41 63 -146 231 -232 373 l-158 257 -606 0 -607 -1 -713 -742z"/>
</g>
</svg>
