<?xml version="1.0" standalone="no"?>
<!DOCTYPE svg PUBLIC "-//W3C//DTD SVG 20010904//EN"
 "http://www.w3.org/TR/2001/REC-SVG-20010904/DTD/svg10.dtd">
<svg version="1.0" xmlns="http://www.w3.org/2000/svg"
 width="1050.000000pt" height="1050.000000pt" viewBox="0 0 1050.000000 1050.000000"
 preserveAspectRatio="xMidYMid meet">
<metadata>
Created by potrace 1.14, written by Peter Selinger 2001-2017
</metadata>
<g transform="translate(0.000000,1050.000000) scale(0.100000,-0.100000)"
fill="#000000" stroke="none">
<path d="M5035 10484 c-803 -108 -1416 -734 -1504 -1536 -8 -66 -11 -807 -11
-2301 0 -2434 -5 -2255 65 -2496 120 -417 468 -1146 953 -1996 215 -378 704
-1185 717 -1185 6 0 245 386 412 665 341 567 574 989 821 1485 300 600 454
998 491 1265 14 101 15 4420 1 4553 -69 658 -492 1209 -1110 1448 -254 98
-567 135 -835 98z m413 -720 c340 -70 614 -325 718 -670 24 -79 27 -106 28
-244 1 -122 -3 -171 -18 -230 -89 -351 -354 -615 -702 -702 -131 -32 -322 -30
-456 5 -98 26 -224 83 -307 140 -127 86 -268 262 -331 414 -99 238 -91 537 20
768 72 150 194 289 330 380 87 58 227 118 325 138 95 21 296 21 393 1z m20
-2345 c347 -79 613 -340 708 -694 29 -108 27 -351 -4 -464 -75 -275 -252 -488
-506 -611 -168 -81 -341 -111 -516 -90 -390 48 -694 306 -805 685 -38 128 -45
303 -17 435 48 234 172 433 354 570 229 173 508 233 786 169z m45 -2353 c409
-122 680 -481 680 -901 0 -195 -48 -356 -156 -518 -126 -188 -322 -328 -548
-389 -122 -33 -347 -33 -469 0 -307 83 -554 312 -656 610 -180 526 144 1091
696 1213 126 28 332 21 453 -15z"/>
<path d="M3056 683 l-655 -678 1430 -3 c787 -1 2071 -1 2855 0 l1424 3 -656
678 -655 677 -561 -2 -561 -3 -79 -128 c-143 -234 -336 -532 -343 -532 -7 0
-200 298 -343 532 l-79 128 -561 3 -561 2 -655 -677z"/>
</g>
</svg>
